HIERARCHY
ROOT Hips
{
 OFFSET 0.000000 0.000000 0.000000
 CHANNELS 6 Xposition Yposition Zposition Yrotation Xrotation Zrotation
 JOINT Chest
 {
  OFFSET 0.000000 11.395451 -0.039534
  CHANNELS 3 Yrotation Xrotation Zrotation
  JOINT Chest2
  {
   OFFSET 0.000000 9.398669 0.071813
   CHANNELS 3 Yrotation Xrotation Zrotation
   JOINT Chest3
   {
    OFFSET 0.000000 8.489801 0.000000
    CHANNELS 3 Yrotation Xrotation Zrotation
    JOINT Chest4
    {
     OFFSET 0.000000 8.489801 0.000000
     CHANNELS 3 Yrotation Xrotation Zrotation
     JOINT Neck
     {
      OFFSET 0.000000 12.404889 0.000000
      CHANNELS 3 Yrotation Xrotation Zrotation
      JOINT Head
      {
       OFFSET 0.000000 8.903270 0.092239
       CHANNELS 3 Yrotation Xrotation Zrotation
       End Site
       {
        OFFSET 0.000000 17.592497 0.007158
       }
      }
     }
     JOINT RightCollar
     {
      OFFSET -3.196775 6.966722 0.000000
      CHANNELS 3 Yrotation Xrotation Zrotation
      JOINT RightShoulder
      {
       OFFSET -15.955896 0.000000 0.000000
       CHANNELS 3 Yrotation Xrotation Zrotation
       JOINT RightElbow
       {
        OFFSET -24.792472 0.000000 0.000000
        CHANNELS 3 Yrotation Xrotation Zrotation
        JOINT RightWrist
        {
         OFFSET -20.900115 0.000000 0.025002
         CHANNELS 3 Yrotation Xrotation Zrotation
         End Site
         {
          OFFSET -16.056692 0.000000 0.000000
         }
        }
       }
      }
     }
     JOINT LeftCollar
     {
      OFFSET 3.196775 6.966722 0.000000
      CHANNELS 3 Yrotation Xrotation Zrotation
      JOINT LeftShoulder
      {
       OFFSET 15.955896 0.000000 0.000000
       CHANNELS 3 Yrotation Xrotation Zrotation
       JOINT LeftElbow
       {
        OFFSET 24.792472 0.000000 0.000000
        CHANNELS 3 Yrotation Xrotation Zrotation
        JOINT LeftWrist
        {
         OFFSET 20.900115 0.000000 0.025002
         CHANNELS 3 Yrotation Xrotation Zrotation
         End Site
         {
          OFFSET 16.056692 0.000000 0.000000
         }
        }
       }
      }
     }
    }
   }
  }
 }
 JOINT RightHip
 {
  OFFSET -9.568995 0.193718 0.019767
  CHANNELS 3 Yrotation Xrotation Zrotation
  JOINT RightKnee
  {
   OFFSET 0.000000 -56.649296 0.015402
   CHANNELS 3 Yrotation Xrotation Zrotation
   JOINT RightAnkle
   {
    OFFSET 0.000000 -41.365147 0.021264
    CHANNELS 3 Yrotation Xrotation Zrotation
    JOINT RightToe
    {
     OFFSET 0.000000 -7.465940 17.672538
     CHANNELS 3 Yrotation Xrotation Zrotation
     End Site
     {
      OFFSET 0.000000 -1.736315 7.837145
     }
    }
   }
  }
 }
 JOINT LeftHip
 {
  OFFSET 9.568995 0.193718 0.019767
  CHANNELS 3 Yrotation Xrotation Zrotation
  JOINT LeftKnee
  {
   OFFSET 0.000000 -56.649296 0.015402
   CHANNELS 3 Yrotation Xrotation Zrotation
   JOINT LeftAnkle
   {
    OFFSET 0.000000 -41.365147 0.021264
    CHANNELS 3 Yrotation Xrotation Zrotation
    JOINT LeftToe
    {
     OFFSET 0.000000 -7.465940 17.672538
     CHANNELS 3 Yrotation Xrotation Zrotation
     End Site
     {
      OFFSET 0.000000 -1.736315 7.837145
     }
    }
   }
  }
 }
}
MOTION
Frames: 5
Frame Time: 0.016667
29.409266 104.613128 496.732495 -46.090617 -3.875039 -2.581401 -0.191260 6.742235 1.912031 -0.112680 2.995733 0.851055 -0.112681 2.995731 0.851053 -0.088667 2.246647 0.638697 -0.454631 13.695840 -0.197116 -0.780195 -10.750614 -0.190541 0.627714 3.292925 6.536662 19.208146 -17.142564 42.564102 36.234215 -38.183959 27.108284 -5.699218 -20.359871 6.827158 0.719482 3.700719 -4.180214 -3.997210 -20.154985 -54.359011 -20.221601 -50.574101 -49.018539 10.999650 -19.357693 6.731902 -8.592053 -7.407294 8.532977 2.740902 20.249671 -1.816665 2.734588 -10.911855 -3.834059 0.000000 0.000000 0.000000 11.789007 -27.615919 3.585430 -3.241728 63.351373 -1.685610 4.375730 -5.274176 0.935891 -0.000000 -0.000000 0.000000
28.342984 104.643560 497.499307 -46.589525 -3.578562 -2.575976 0.032370 6.702214 1.910193 -0.013270 2.978877 0.847011 -0.013270 2.978877 0.847011 -0.014082 2.234145 0.635180 -0.437368 13.645338 -0.306482 -0.703842 -10.844871 -0.403940 0.617621 3.228464 6.490909 19.710209 -17.414441 42.475900 36.160678 -37.894633 27.046231 -5.512223 -20.405127 6.844318 0.839906 3.621237 -4.177833 -3.960037 -19.875676 -54.141653 -20.167999 -50.624583 -49.136372 10.548218 -19.455002 6.481746 -8.089365 -7.075479 8.574988 2.472264 20.432332 -1.816888 2.993867 -11.662456 -3.982370 0.000000 -0.000000 0.000000 11.004791 -28.321795 3.488191 -2.545727 58.887687 -1.491272 4.712923 -5.435451 0.289903 0.000000 0.000000 0.000000
27.255036 104.627631 498.298241 -47.042691 -3.295581 -2.625334 0.223547 6.681284 1.935461 0.071276 2.970372 0.855477 0.071278 2.970370 0.855477 0.049286 2.227881 0.641118 -0.399900 13.563639 -0.388209 -0.600142 -10.996780 -0.573335 0.636819 3.214936 6.450076 20.355296 -17.544543 42.280068 36.138934 -37.741049 26.870924 -5.243223 -20.503744 6.851165 0.929765 3.599792 -4.155879 -3.915768 -19.620275 -53.969635 -20.256588 -50.685893 -49.157604 10.075451 -19.567806 6.220629 -7.323909 -6.760639 8.641183 2.198879 20.665432 -1.753218 2.908769 -12.453678 -4.163166 0.000000 -0.000000 0.000000 10.004267 -28.834630 3.692806 -1.828045 54.386514 -1.883727 5.280539 -6.166156 0.145301 0.000000 -0.000000 -0.000000
26.158170 104.573155 499.114397 -47.455501 -3.006472 -2.724312 0.388698 6.673381 1.984185 0.143877 2.967581 0.874721 0.143878 2.967579 0.874721 0.103635 2.225894 0.655195 -0.352395 13.451463 -0.444518 -0.487338 -11.205054 -0.698957 0.677528 3.243952 6.413144 21.082759 -17.583838 41.999037 36.169018 -37.681498 26.627914 -4.916771 -20.638953 6.837621 0.994647 3.616845 -4.119126 -3.894415 -19.384710 -53.810951 -20.435346 -50.758019 -49.119803 9.577125 -19.687958 5.975332 -6.388961 -6.484534 8.736229 1.909463 20.949530 -1.649104 2.597877 -13.282138 -4.345717 0.000000 0.000000 0.000000 8.963764 -29.145278 4.035186 -0.878608 49.563551 -2.286592 5.920887 -7.064042 0.164811 0.000000 -0.000000 -0.000000
25.056099 104.487784 499.944397 -47.761368 -2.684553 -2.878119 0.501355 6.658004 2.054115 0.192918 2.961305 0.904148 0.192918 2.961305 0.904148 0.140272 2.221270 0.677024 -0.303437 13.345241 -0.458917 -0.388476 -11.402157 -0.746111 0.749595 3.298094 6.385933 21.764503 -17.584956 41.677217 36.224364 -37.667021 26.416126 -4.593439 -20.782166 6.766573 1.044741 3.656303 -4.097360 -3.874801 -19.191624 -53.664990 -20.660345 -50.807494 -49.050872 9.127601 -19.769004 5.861904 -5.506583 -6.247674 8.870749 1.533824 21.283712 -1.551878 2.303606 -14.154051 -4.493533 0.000000 0.000000 0.000000 8.338422 -29.258662 4.174175 0.136980 44.257035 -2.318545 6.471707 -7.534770 -0.153581 -0.000000 0.000000 -0.000000
